<svg data-v-fde0c5aa="" xmlns="http://www.w3.org/2000/svg" viewBox="0 0 300 300" class="iconAbove"><!----><defs data-v-fde0c5aa=""><!----></defs><rect data-v-fde0c5aa="" fill="#053881" x="0" y="0" width="300px" height="300px" class="logo-background-square"></rect><defs data-v-fde0c5aa=""><!----></defs><g data-v-fde0c5aa="" id="9ee24f2b-888a-4f92-ab3c-2f8506133bd1" fill="#ffffff" transform="matrix(3.9877297813745662,0,0,3.9877297813745662,17.487730256749,174.7714700303479)"><path d="M0.63 3.64C0.63 3.89 0.72 4.11 0.91 4.28C1.10 4.46 1.32 4.55 1.58 4.55C1.84 4.55 2.07 4.46 2.25 4.28C2.44 4.11 2.53 3.89 2.53 3.64C2.53 3.39 2.44 3.17 2.25 3.00C2.07 2.82 1.84 2.73 1.58 2.73C1.32 2.73 1.10 2.82 0.91 3.00C0.72 3.17 0.63 3.39 0.63 3.64ZM0.84 6.16L0.84 12.60L2.32 12.60L2.32 6.16ZM5.54 7.15L5.54 6.16L4.07 6.16L4.07 12.60L5.54 12.60L5.54 8.96C5.54 8.51 5.71 8.13 6.04 7.82C6.37 7.51 6.75 7.35 7.18 7.35C7.59 7.35 7.90 7.45 8.11 7.64C8.31 7.83 8.41 8.18 8.41 8.68L8.41 12.60L9.88 12.60L9.88 8.54C9.88 7.63 9.69 6.98 9.29 6.59C8.89 6.21 8.33 6.02 7.60 6.02C6.72 6.02 6.03 6.40 5.54 7.15ZM12.28 8.01C12.92 7.54 13.58 7.31 14.27 7.31C15.17 7.31 15.62 7.56 15.62 8.05L15.62 8.90C15.16 8.65 14.60 8.53 13.96 8.53C13.14 8.53 12.45 8.72 11.90 9.11C11.35 9.51 11.07 10.06 11.07 10.78C11.07 11.43 11.30 11.92 11.76 12.25C12.22 12.58 12.77 12.74 13.43 12.74C13.92 12.74 14.36 12.65 14.75 12.46C15.14 12.27 15.43 12.01 15.62 11.68L15.62 12.60L17.09 12.60L17.09 7.98C17.09 7.32 16.84 6.82 16.32 6.50C15.81 6.18 15.12 6.02 14.27 6.02C13.35 6.02 12.51 6.30 11.73 6.87ZM12.49 10.64C12.49 10.36 12.64 10.12 12.95 9.90C13.26 9.70 13.66 9.59 14.15 9.59C14.69 9.59 15.18 9.67 15.62 9.84L15.62 10.08C15.62 10.65 15.48 11.05 15.18 11.27C14.89 11.49 14.44 11.61 13.85 11.61C12.94 11.61 12.49 11.28 12.49 10.64ZM20.31 7.15L20.31 6.16L18.84 6.16L18.84 12.60L20.31 12.60L20.31 8.96C20.31 8.51 20.48 8.13 20.81 7.82C21.14 7.51 21.52 7.35 21.95 7.35C22.36 7.35 22.67 7.45 22.88 7.64C23.08 7.83 23.18 8.18 23.18 8.68L23.18 12.60L24.65 12.60L24.65 8.54C24.65 7.63 24.46 6.98 24.06 6.59C23.66 6.21 23.10 6.02 22.37 6.02C21.49 6.02 20.80 6.40 20.31 7.15ZM26.47 12.04C26.47 12.29 26.57 12.51 26.75 12.68C26.94 12.86 27.16 12.95 27.43 12.95C27.69 12.95 27.91 12.86 28.10 12.68C28.28 12.51 28.38 12.29 28.38 12.04C28.38 11.79 28.28 11.57 28.10 11.40C27.91 11.22 27.69 11.13 27.43 11.13C27.16 11.13 26.94 11.22 26.75 11.40C26.57 11.57 26.47 11.79 26.47 12.04ZM30.91 10.25L29.71 10.78C29.81 11.31 30.12 11.77 30.63 12.16C31.13 12.55 31.71 12.74 32.37 12.74C33.11 12.74 33.72 12.59 34.20 12.28C34.69 11.97 34.93 11.52 34.93 10.92C34.93 10.31 34.75 9.84 34.38 9.51C34.01 9.17 33.53 8.89 32.94 8.68C32.46 8.50 32.10 8.34 31.86 8.20C31.63 8.05 31.51 7.89 31.51 7.71C31.51 7.39 31.79 7.22 32.35 7.22C32.87 7.22 33.29 7.46 33.63 7.92L34.76 7.28C34.56 6.91 34.24 6.60 33.82 6.37C33.39 6.14 32.90 6.02 32.34 6.02C31.72 6.02 31.19 6.17 30.73 6.48C30.27 6.79 30.04 7.20 30.04 7.71C30.04 8.66 30.73 9.35 32.10 9.79C32.53 9.92 32.86 10.07 33.08 10.23C33.31 10.40 33.42 10.62 33.42 10.88C33.42 11.23 33.09 11.41 32.44 11.41C32.08 11.41 31.76 11.31 31.47 11.11C31.18 10.91 31.00 10.62 30.91 10.25ZM36.47 3.92L36.47 6.16L35.42 6.16L35.42 7.49L36.47 7.49L36.47 12.60L37.94 12.60L37.94 7.49L38.99 7.49L38.99 6.16L37.94 6.16L37.94 3.92ZM44.45 11.61L44.45 12.60L45.92 12.60L45.92 6.16L44.45 6.16L44.45 9.80C44.45 10.25 44.28 10.63 43.95 10.94C43.62 11.25 43.24 11.41 42.81 11.41C42.40 11.41 42.09 11.31 41.89 11.12C41.68 10.93 41.58 10.58 41.58 10.08L41.58 6.16L40.11 6.16L40.11 10.22C40.11 11.13 40.31 11.78 40.71 12.17C41.10 12.55 41.66 12.74 42.39 12.74C43.28 12.74 43.96 12.36 44.45 11.61ZM47.25 9.38C47.25 10.44 47.56 11.27 48.19 11.86C48.81 12.45 49.59 12.74 50.51 12.74C51.51 12.74 52.27 12.31 52.78 11.45L52.78 12.60L54.25 12.60L54.25 1.68L52.78 1.68L52.78 7.31C52.27 6.45 51.51 6.02 50.51 6.02C49.59 6.02 48.81 6.31 48.19 6.90C47.56 7.49 47.25 8.32 47.25 9.38ZM48.73 9.38C48.73 8.73 48.92 8.22 49.30 7.87C49.68 7.52 50.18 7.35 50.79 7.35C51.34 7.35 51.81 7.52 52.20 7.85C52.59 8.18 52.78 8.69 52.78 9.38C52.78 10.07 52.59 10.58 52.20 10.91C51.81 11.24 51.34 11.41 50.79 11.41C50.18 11.41 49.68 11.23 49.30 10.88C48.92 10.54 48.73 10.03 48.73 9.38ZM55.79 3.64C55.79 3.89 55.88 4.11 56.07 4.28C56.26 4.46 56.48 4.55 56.74 4.55C57.00 4.55 57.23 4.46 57.41 4.28C57.60 4.11 57.69 3.89 57.69 3.64C57.69 3.39 57.60 3.17 57.41 3.00C57.23 2.82 57.00 2.73 56.74 2.73C56.48 2.73 56.26 2.82 56.07 3.00C55.88 3.17 55.79 3.39 55.79 3.64ZM56.00 6.16L56.00 12.60L57.48 12.60L57.48 6.16ZM58.74 9.38C58.74 10.40 59.08 11.21 59.76 11.82C60.44 12.43 61.28 12.74 62.29 12.74C63.29 12.74 64.14 12.43 64.81 11.82C65.49 11.21 65.83 10.40 65.83 9.38C65.83 8.36 65.49 7.55 64.81 6.94C64.14 6.33 63.29 6.02 62.29 6.02C61.28 6.02 60.44 6.33 59.76 6.94C59.08 7.55 58.74 8.36 58.74 9.38ZM60.23 9.38C60.23 8.75 60.42 8.26 60.80 7.90C61.18 7.53 61.68 7.35 62.29 7.35C62.89 7.35 63.39 7.53 63.77 7.90C64.15 8.26 64.34 8.75 64.34 9.38C64.34 10.01 64.15 10.50 63.77 10.86C63.39 11.23 62.89 11.41 62.29 11.41C61.68 11.41 61.18 11.23 60.80 10.86C60.42 10.50 60.23 10.01 60.23 9.38Z"></path></g><defs data-v-fde0c5aa=""><!----></defs><g data-v-fde0c5aa="" id="891397ff-d722-4597-9501-72941ec78672" stroke="none" fill="#07A0B4" transform="matrix(4.797364700270043,0,0,4.797364700270043,73.24216479567932,41.771308466412464)"><path d="M16 19.586l7.496-12.954H8.504zM7.496 12.414L0 25.368h14.992zM24.504 12.414l-7.496 12.954H32z"></path></g><!----></svg>